<svg width="36" height="37" viewBox="0 0 36 37" fill="none" xmlns="http://www.w3.org/2000/svg">
<g clip-path="url(#clip0_12_36)">
<path fill-rule="evenodd" clip-rule="evenodd" d="M31.6017 0.400391C34.0292 0.400391 36 2.36878 36 4.79322V31.9625C36 34.387 34.0291 36.3554 31.6017 36.3554H24.1156V22.808H28.7985L29.6895 17.006H24.1156V13.2407C24.1156 11.6535 24.8942 10.1062 27.3908 10.1062H29.925V5.1666C29.925 5.1666 27.6251 4.77461 25.4263 4.77461C20.8357 4.77461 17.8353 7.55332 17.8353 12.5839V17.006H12.7325V22.808H17.8353V36.3554H4.39833C1.97086 36.3554 0 34.387 0 31.9625V4.79322C0 2.36878 1.97079 0.400391 4.39833 0.400391L31.6017 0.400391Z" fill="white"/>
</g>
<defs>
<clipPath id="clip0_12_36">
<rect width="36" height="35.955" fill="white" transform="translate(0 0.400391)"/>
</clipPath>
</defs>
</svg>
