<svg width="36" height="37" viewBox="0 0 36 37" fill="none" xmlns="http://www.w3.org/2000/svg">
<g clip-path="url(#clip0_12_43)">
<path fill-rule="evenodd" clip-rule="evenodd" d="M29.7683 8.65118C29.7683 9.84275 28.8011 10.8085 27.6083 10.8085C26.4156 10.8085 25.4483 9.84275 25.4483 8.65118C25.4483 7.45961 26.4156 6.49388 27.6083 6.49388C28.8014 6.49388 29.7683 7.45961 29.7683 8.65118ZM18 24.2399C14.6863 24.2399 12.0001 21.557 12.0001 18.2475C12.0001 14.938 14.6863 12.2551 18 12.2551C21.3137 12.2551 23.9999 14.938 23.9999 18.2475C23.9999 21.557 21.3137 24.2399 18 24.2399ZM18 9.01578C12.895 9.01578 8.75672 13.1489 8.75672 18.2475C8.75672 23.3461 12.895 27.4792 18 27.4792C23.105 27.4792 27.2433 23.3461 27.2433 18.2475C27.2433 13.1489 23.105 9.01578 18 9.01578ZM18 3.50934C22.8063 3.50934 23.3755 3.5276 25.2734 3.61411C27.0284 3.69417 27.9816 3.98686 28.6158 4.23321C29.4559 4.55933 30.0555 4.94894 30.6855 5.57815C31.3155 6.20708 31.7056 6.80596 32.0321 7.64528C32.2785 8.27871 32.5718 9.23067 32.652 10.9835C32.7386 12.8793 32.7569 13.4478 32.7569 18.2481C32.7569 23.0483 32.7386 23.6169 32.652 25.5124C32.5718 27.2652 32.2788 28.2171 32.0321 28.8506C31.7056 29.6896 31.3155 30.2885 30.6855 30.9177C30.0558 31.5469 29.4562 31.9365 28.6158 32.2626C27.9816 32.5087 27.0284 32.8017 25.2734 32.8817C23.3755 32.9683 22.8063 32.9865 18 32.9865C13.1934 32.9865 12.6242 32.9683 10.7263 32.8817C8.97131 32.8017 8.01816 32.509 7.38394 32.2626C6.54384 31.9365 5.94422 31.5469 5.31422 30.9177C4.6845 30.2888 4.29413 29.6899 3.96759 28.8506C3.72122 28.2171 3.42788 27.2652 3.34772 25.5124C3.26109 23.6166 3.24281 23.0481 3.24281 18.2481C3.24281 13.4478 3.26109 12.8793 3.34772 10.9835C3.42788 9.23067 3.72094 8.27871 3.96759 7.64528C4.29413 6.80624 4.68422 6.20736 5.31422 5.57815C5.94394 4.94894 6.54356 4.55933 7.38394 4.23321C8.01816 3.98715 8.97131 3.69417 10.7263 3.61411C12.6245 3.5276 13.1937 3.50934 18 3.50934ZM18 0.27002C13.1116 0.27002 12.4985 0.290806 10.5787 0.378165C8.66278 0.465525 7.35413 0.769456 6.20944 1.21384C5.02566 1.67311 4.02187 2.28799 3.02119 3.28743C2.0205 4.28686 1.40484 5.28939 0.945 6.47169C0.500062 7.61523 0.19575 8.92196 0.108281 10.8354C0.0208125 12.7529 0 13.3652 0 18.2475C0 23.1298 0.0208125 23.7422 0.108281 25.6596C0.19575 27.573 0.500062 28.8798 0.945 30.0233C1.40484 31.2056 2.0205 32.2081 3.02119 33.2076C4.02187 34.207 5.02566 34.8216 6.20944 35.2812C7.35441 35.7256 8.66278 36.0295 10.5787 36.1168C12.4985 36.2042 13.1116 36.225 18 36.225C22.8884 36.225 23.5015 36.2042 25.4213 36.1168C27.3372 36.0295 28.6456 35.7256 29.7906 35.2812C30.9743 34.8216 31.9781 34.207 32.9788 33.2076C33.9795 32.2081 34.5949 31.2056 35.055 30.0233C35.4999 28.8798 35.8042 27.573 35.8917 25.6596C35.9792 23.7422 36 23.1298 36 18.2475C36 13.3652 35.9792 12.7529 35.8917 10.8354C35.8042 8.92196 35.4999 7.61523 35.055 6.47169C34.5949 5.28939 33.9795 4.28686 32.9788 3.28743C31.9781 2.28799 30.9743 1.67339 29.7906 1.21384C28.6456 0.769456 27.3372 0.465525 25.4213 0.378165C23.5015 0.290806 22.8884 0.27002 18 0.27002Z" fill="url(#paint0_radial_12_43)"/>
</g>
<defs>
<radialGradient id="paint0_radial_12_43" cx="0" cy="0" r="1" gradientUnits="userSpaceOnUse" gradientTransform="translate(5.375 36.3498) scale(45.999 45.9414)">
<stop stop-color="#FFB140"/>
<stop offset="0.2559" stop-color="#FF5445"/>
<stop offset="0.599" stop-color="#FC2B82"/>
<stop offset="1" stop-color="#8E40B7"/>
</radialGradient>
<clipPath id="clip0_12_43">
<rect width="36" height="35.955" fill="white" transform="translate(0 0.27002)"/>
</clipPath>
</defs>
</svg>
