<svg width="275" height="100" viewBox="0 0 275 100" fill="none" xmlns="http://www.w3.org/2000/svg">
<path d="M2 1.49609H36C36 1.49609 50 1.5 50 11.9961C50 22.4922 50 24.9961 50 31.9961C50 38.9961 55.5 41.9961 60.5 41.9961C65.5 41.9961 70.5 39 70.5 32C70.5 27.8268 70.5 32.5 70.5 26C70.5 19.5 76.5 19.5 76.5 19.5C76.5 19.5 83 19.5 83 26M83 41.9961V26M147 19.5H141.5C141.5 19.5 134 19.5 134 28.5C134 37.5 134 41.9961 134 41.9961L134 87.0479M204.5 57V71V82M204.5 97.9961C204.5 97.9961 204.5 88.5039 204.5 82M228 75.4961C228 75.4961 228 87 228 92.498C228 97.9961 223.25 97.9961 223.25 97.9961C223.25 97.9961 218.5 98 218.5 92.498C218.5 86.9961 218.5 82 218.5 82C218.5 82 218.5 75.4961 211.5 75.4961C211.5 75.4961 204.5 75.4961 204.5 82M235 97.9961V83C235 83 235 75.4961 241.5 75.4961H246L273 75.5M197.5 75.5L191 75.4961C191 75.4961 185 75.4961 185 81.5C185 87.5039 191 87.0479 191 87.0479C197.5 87 197.5 92 197.5 92C197.5 97.9961 191 98 191 98H185C185 98 178.5 98 178.5 92C178.5 86 178.5 87 178.5 87M83 26C83 26 83 19.5 89.5 19.5C96 19.5 95.5 26 95.5 26C95.5 26 95.5 26.0039 95.5 34C95.5 41.9961 103 41.9961 103 41.9961L114.5 42M123.5 29.5C123.5 29.5 123.5 19.5 114.5 19.5C106 19.5 106 29.5 106 29.5C106 41.9961 114.5 42 114.5 42M123.5 29.5C123.5 29.5 123.5 41.9961 114.5 42M123.5 29.5C123.5 29.5 123.5 35.0039 123.5 38C123.5 41.9961 128 41.9961 128 41.9961M134 87.0479L134 87C134 87 134 98 145 98C156 98 156 87.0479 156 87.0479C156 75.5479 145 75.5 145 75.5C134 75.5 134 87.0479 134 87.0479ZM178.5 87C178.5 87 178 75.5 169.5 75.5C161 75.5 161 87 161 87C161 87 161 98 169.5 98C178 98 178.5 87 178.5 87Z" stroke="black" stroke-width="3" stroke-linecap="round" stroke-linejoin="round"/>
<circle cx="228" cy="67" r="2" fill="black"/>
</svg>
