<svg width="43" height="43" viewBox="0 0 43 43" fill="none" xmlns="http://www.w3.org/2000/svg">
<circle cx="21.5" cy="21.5" r="21.5" fill="url(#paint0_linear_41_10)"/>
<g clip-path="url(#clip0_41_10)">
<path d="M19.8945 31.4805L17.5117 30.7891C17.2617 30.7188 17.1211 30.457 17.1914 30.207L22.5234 11.8399C22.5938 11.5899 22.8555 11.4492 23.1055 11.5195L25.4883 12.211C25.7383 12.2813 25.8789 12.543 25.8086 12.793L20.4766 31.1602C20.4023 31.4102 20.1445 31.5547 19.8945 31.4805ZM15.4414 27.0977L17.1406 25.2852C17.3203 25.0938 17.3086 24.7891 17.1094 24.6133L13.5703 21.5L17.1094 18.3867C17.3086 18.211 17.3242 17.9063 17.1406 17.7149L15.4414 15.9024C15.2656 15.7149 14.9687 15.7031 14.7773 15.8828L9.14844 21.1563C8.94922 21.3399 8.94922 21.6563 9.14844 21.8399L14.7773 27.1172C14.9687 27.2969 15.2656 27.2891 15.4414 27.0977ZM28.2227 27.1211L33.8516 21.8438C34.0508 21.6602 34.0508 21.3438 33.8516 21.1602L28.2227 15.8789C28.0352 15.7031 27.7383 15.711 27.5586 15.8985L25.8594 17.711C25.6797 17.9024 25.6914 18.207 25.8906 18.3828L29.4297 21.5L25.8906 24.6133C25.6914 24.7891 25.6758 25.0938 25.8594 25.2852L27.5586 27.0977C27.7344 27.2891 28.0312 27.2969 28.2227 27.1211Z" fill="white"/>
</g>
<defs>
<linearGradient id="paint0_linear_41_10" x1="-5.97286e-07" y1="21.1791" x2="37.8657" y2="12.194" gradientUnits="userSpaceOnUse">
<stop stop-color="#F81F01"/>
<stop offset="1" stop-color="#EE076E"/>
</linearGradient>
<clipPath id="clip0_41_10">
<rect width="25" height="25" fill="white" transform="translate(9 9)"/>
</clipPath>
</defs>
</svg>
