<svg width="36" height="37" viewBox="0 0 36 37" fill="none" xmlns="http://www.w3.org/2000/svg">
<g clip-path="url(#clip0_12_39)">
<path d="M31.5 36.2902H4.5C2.016 36.2902 0 34.2767 0 31.7958V4.82958C0 2.34868 2.016 0.335205 4.5 0.335205H31.5C33.984 0.335205 36 2.34868 36 4.82958V31.7958C36 34.2767 33.984 36.2902 31.5 36.2902Z" fill="white"/>
<path d="M13.824 27.4453C22.311 27.4453 26.955 20.4161 26.955 14.3307C26.955 14.133 26.955 13.9352 26.946 13.7375C27.846 13.0903 28.629 12.2723 29.25 11.3465C28.422 11.715 27.531 11.9577 26.595 12.0746C27.549 11.5083 28.278 10.6004 28.629 9.52175C27.738 10.0521 26.748 10.4296 25.695 10.6364C24.849 9.73748 23.652 9.18018 22.329 9.18018C19.782 9.18018 17.712 11.2476 17.712 13.7914C17.712 14.1509 17.757 14.5015 17.829 14.8431C13.995 14.6543 10.593 12.8116 8.316 10.0251C7.92 10.7083 7.695 11.4993 7.695 12.3442C7.695 13.9442 8.514 15.3554 9.747 16.1824C8.991 16.1554 8.28 15.9487 7.659 15.6071V15.67C7.659 17.8993 9.252 19.7689 11.358 20.1914C10.971 20.2993 10.566 20.3532 10.143 20.3532C9.846 20.3532 9.558 20.3262 9.279 20.2723C9.864 22.106 11.574 23.4363 13.59 23.4723C12.006 24.7127 10.017 25.4498 7.857 25.4498C7.488 25.4498 7.119 25.4318 6.759 25.3869C8.793 26.6813 11.223 27.4453 13.824 27.4453Z" fill="#1DA1F2"/>
</g>
<defs>
<clipPath id="clip0_12_39">
<rect width="36" height="35.955" fill="white" transform="translate(0 0.335205)"/>
</clipPath>
</defs>
</svg>
