<svg width="192" height="192" viewBox="0 0 192 192" fill="none" xmlns="http://www.w3.org/2000/svg">
<circle cx="96" cy="96" r="72" fill="url(#paint0_linear_102_3)"/>
<g clip-path="url(#clip0_102_3)">
<path d="M90.6238 129.423L82.6441 127.108C81.8069 126.872 81.336 125.996 81.5714 125.158L99.4275 63.6497C99.663 62.8125 100.539 62.3416 101.377 62.577L109.356 64.8924C110.194 65.1279 110.664 66.0044 110.429 66.8416L92.5729 128.35C92.3243 129.187 91.461 129.672 90.6238 129.423ZM75.711 114.746L81.4014 108.676C82.0031 108.035 81.9639 107.015 81.2967 106.426L69.445 96L81.2967 85.5741C81.9639 84.9855 82.0162 83.9651 81.4014 83.3241L75.711 77.2544C75.1223 76.6264 74.1281 76.5872 73.4871 77.1889L54.6368 94.8488C53.9697 95.4637 53.9697 96.5233 54.6368 97.1381L73.4871 114.811C74.1281 115.413 75.1223 115.387 75.711 114.746ZM118.513 114.824L137.364 97.1512C138.031 96.5363 138.031 95.4767 137.364 94.8619L118.513 77.1759C117.885 76.5872 116.891 76.6134 116.289 77.2413L110.599 83.311C109.997 83.952 110.037 84.9724 110.704 85.561L122.555 96L110.704 106.426C110.037 107.015 109.984 108.035 110.599 108.676L116.289 114.746C116.878 115.387 117.872 115.413 118.513 114.824Z" fill="white"/>
</g>
<defs>
<linearGradient id="paint0_linear_102_3" x1="24" y1="94.9254" x2="150.806" y2="64.8358" gradientUnits="userSpaceOnUse">
<stop stop-color="#F81F01"/>
<stop offset="1" stop-color="#EE076E"/>
</linearGradient>
<clipPath id="clip0_102_3">
<rect width="83.7209" height="83.7209" fill="white" transform="translate(54.1396 54.1395)"/>
</clipPath>
</defs>
</svg>
